# xmcd
#
# Track frame offsets: 
#        150
#        20925
#        31675
#        69373
#        119200
#        154369
#        188518
#        196256
#        225834
#        255489
#
# Disc length: 3794 seconds
#
# Revision: 0
# Processed by: cddbd v1.5.1PL0 Copyright (c) Steve Scherf et al.
# Submitted via: ExactAudioCopy v0.95a5
#
DISCID=7d0ed00a
DTITLE=Eric Clapton - 1974-12-04 Hammersmith London D2
DYEAR=1974
DGENRE=Blues
TTITLE0=Opposites
TTITLE1=[Different False Starts]
TTITLE2=Blues Power
TTITLE3=Little Wing
TTITLE4=Singing The Blues
TTITLE5=Badge
TTITLE6=All I have To Do Is Dream
TTITLE7=Steady Rollin' Man
TTITLE8=Layla
TTITLE9=Let It Rain
EXTD=
EXTT0=
EXTT1=
EXTT2=
EXTT3=
EXTT4=
EXTT5=
EXTT6=
EXTT7=
EXTT8=
EXTT9=
PLAYORDER=
